<?xml version="1.0" standalone="no"?>
<!DOCTYPE svg PUBLIC "-//W3C//DTD SVG 20010904//EN"
 "http://www.w3.org/TR/2001/REC-SVG-20010904/DTD/svg10.dtd">
<svg version="1.0" xmlns="http://www.w3.org/2000/svg"
 width="260.000000pt" height="260.000000pt" viewBox="0 0 260.000000 260.000000"
 preserveAspectRatio="xMidYMid meet">
<metadata>
Created by potrace 1.14, written by Peter Selinger 2001-2017
</metadata>
<g transform="translate(0.000000,260.000000) scale(0.100000,-0.100000)"
fill="#000000" stroke="none">
<path d="M1238 2563 c-10 -3 -124 -65 -255 -140 -131 -74 -260 -148 -288 -163
-285 -159 -490 -279 -490 -286 0 -9 32 -26 235 -122 69 -33 179 -85 245 -117
66 -32 206 -98 310 -147 105 -50 231 -110 282 -134 59 -29 98 -41 110 -37 10
4 97 57 193 118 96 61 299 189 450 284 402 254 384 241 368 256 -7 7 -132 63
-278 125 -146 61 -278 117 -295 125 -16 7 -149 64 -295 125 -146 62 -267 113
-270 114 -3 2 -13 1 -22 -1z m572 -309 c74 -40 86 -62 115 -214 3 -14 0 -40
-6 -59 -10 -30 -9 -37 8 -50 48 -40 27 -78 -48 -86 -143 -14 -189 -4 -189 40
0 17 9 29 30 40 17 9 30 20 30 25 0 5 -23 21 -52 35 -49 24 -56 25 -162 20
-61 -4 -143 -8 -183 -10 -39 -2 -85 -11 -101 -19 -17 -9 -68 -18 -114 -21 -45
-2 -126 -7 -178 -11 -162 -11 -182 -12 -300 -19 -63 -3 -117 -8 -120 -10 -3
-2 -20 3 -37 10 -37 16 -49 47 -39 99 11 60 7 59 286 70 115 5 195 9 420 20
19 1 51 -3 70 -9 19 -7 58 -10 85 -9 28 2 108 6 179 9 109 6 137 10 177 31 26
13 51 28 54 34 4 6 -3 29 -14 51 -12 22 -19 45 -16 50 11 17 57 9 105 -17z"/>
<path d="M2364 2001 c-32 -21 -207 -131 -389 -246 -181 -114 -352 -222 -380
-240 -27 -17 -81 -51 -119 -75 -38 -24 -75 -50 -82 -58 -14 -14 -15 13 1 -982
4 -214 10 -357 16 -360 8 -5 940 606 1014 665 20 15 20 28 20 666 0 455 -3
653 -11 660 -7 5 -32 -5 -70 -30z m-164 -327 c0 -9 -25 -64 -56 -121 -45 -85
-54 -111 -49 -135 6 -26 10 -29 33 -23 35 8 32 4 91 117 63 118 76 131 92 92
30 -79 -6 -249 -78 -367 -43 -70 -115 -145 -168 -172 -32 -17 -47 -36 -80
-100 -179 -351 -284 -546 -308 -575 -21 -27 -60 -50 -83 -50 -13 0 -32 12 -44
27 -17 22 -21 37 -17 73 6 53 25 92 245 510 98 186 99 188 96 255 -4 105 36
223 112 330 50 72 86 106 139 134 48 25 75 27 75 5z"/>
<path d="M161 1928 c-4 -12 -6 -33 -4 -47 4 -32 12 -240 28 -761 13 -414 16
-475 28 -486 13 -13 72 -45 292 -159 83 -43 191 -99 240 -125 471 -249 614
-320 619 -312 3 5 3 142 1 303 -3 162 -7 460 -10 663 -3 202 -8 373 -11 378
-6 9 -80 46 -394 195 -52 25 -142 68 -200 96 -58 27 -145 69 -195 92 -231 109
-288 136 -335 160 l-50 26 -9 -23z m587 -384 c64 -32 82 -63 82 -141 1 -90 48
-170 140 -233 29 -21 46 -24 115 -25 97 0 121 -14 160 -95 50 -106 42 -129
-45 -134 -63 -4 -89 -26 -94 -81 -7 -73 18 -127 99 -215 61 -66 75 -88 75
-113 0 -35 -23 -68 -58 -87 -29 -14 -57 2 -122 71 -68 72 -114 99 -170 99 -33
0 -53 -6 -68 -20 -22 -21 -25 -34 -22 -106 2 -72 -36 -80 -122 -28 -66 40 -79
64 -83 148 -4 84 -23 131 -82 192 -54 58 -91 74 -164 73 -59 -2 -64 0 -89 31
-15 18 -37 59 -48 91 -19 52 -19 60 -6 74 13 12 54 20 85 17 4 -1 17 10 30 24
18 19 23 36 23 72 -1 60 -25 110 -84 175 -61 67 -72 90 -61 119 13 33 49 68
69 68 9 0 48 -29 85 -65 93 -88 165 -104 215 -49 18 20 22 37 22 88 0 34 3 66
7 69 14 14 61 6 111 -19z"/>
<path d="M593 1222 c-27 -4 -82 -57 -84 -80 -6 -67 -4 -93 9 -137 53 -183 265
-325 380 -255 124 76 31 341 -157 443 -47 26 -102 37 -148 29z"/>
</g>
</svg>
